<svg aria-hidden="true" style="position: absolute; width: 0; height: 0; overflow: hidden;" version="1.1" xmlns="http://www.w3.org/2000/svg" xmlns:xlink="http://www.w3.org/1999/xlink">
<defs>
<symbol id="icon-client-2" viewBox="0 0 32 32">
<path d="M26.244 17.419l-2.36-0.728c0.074-0.448 0.116-0.964 0.116-1.49 0-5.302-4.298-9.6-9.6-9.6-2.889 0-5.481 1.276-7.24 3.296l-0.010 0.011c-1.46 1.675-2.349 3.88-2.349 6.292 0 5.302 4.298 9.6 9.6 9.6 1.003 0 1.971-0.154 2.88-0.44l-0.068 0.018 0.496 1.6c0.096 0.305 0.362 0.528 0.685 0.56l0.003 0h0.072c0 0 0 0 0 0 0.308 0 0.575-0.173 0.709-0.428l0.002-0.004 1.224-2.36 1.784 1.8c0.145 0.146 0.346 0.237 0.568 0.237s0.423-0.091 0.568-0.237l0-0 2.48-2.488c0.144-0.145 0.233-0.344 0.233-0.564s-0.089-0.419-0.233-0.564l0 0-1.792-1.808 2.4-1.224c0.261-0.135 0.437-0.404 0.437-0.713 0-0.137-0.035-0.266-0.095-0.379l0.002 0.004c-0.101-0.188-0.27-0.328-0.474-0.39l-0.006-0.001h-0.032zM14.388 23.243c-0 0-0.001 0-0.001 0-4.418 0-7.999-3.581-7.999-7.999 0-0 0-0.001 0-0.001v0c0-0 0-0.001 0-0.001 0-4.418 3.581-7.999 7.999-7.999 0 0 0.001 0 0.001 0h-0c0 0 0.001 0 0.001 0 4.418 0 7.999 3.581 7.999 7.999 0 0 0 0.001 0 0.001v-0c-0.004 0.346-0.028 0.69-0.072 1.032l-2.296-0.712v-0.32c0-0.021 0-0.047 0-0.072 0-3.133-2.54-5.672-5.672-5.672s-5.672 2.54-5.672 5.672c0 3.133 2.54 5.672 5.672 5.672 0.014 0 0.028-0 0.042-0h-0.002c0.561 0.004 1.12-0.080 1.656-0.248l0.696 2.248c-0.76 0.25-1.553 0.384-2.352 0.4zM15.324 14.043c-0.070-0.022-0.151-0.035-0.235-0.035-0.442 0-0.8 0.358-0.8 0.8 0 0.084 0.013 0.165 0.037 0.241l-0.002-0.006 1.248 4c-0.353 0.118-0.76 0.188-1.182 0.192h-0.002c-0.004 0-0.009 0-0.014 0-2.248 0-4.071-1.823-4.071-4.071 0-1.092 0.43-2.083 1.129-2.814l-0.001 0.002c0.743-0.777 1.788-1.26 2.945-1.26 2.187 0 3.971 1.724 4.068 3.887l0 0.009-3.12-0.944zM18.66 23.643l-2.36-7.6 7.608 2.352-3.2 1.68c-0.148 0.076-0.268 0.196-0.344 0.344l-1.704 3.224zM24.124 22.507l-1.352 1.352-1.6-1.6 0.464-0.896 0.888-0.464 1.6 1.608z"></path>
</symbol>
<symbol id="icon-client-8" viewBox="0 0 32 32">
<path d="M22.336 22.312v-13.112c0-0 0-0 0-0 0-1.767-1.433-3.2-3.2-3.2-0 0-0 0-0 0h-8c-1.349 0.004-2.502 0.843-2.968 2.026l-0.008 0.022h-4.96c-0.884 0-1.6 0.716-1.6 1.6v0 4.72c0 0.884 0.716 1.6 1.6 1.6v0h4.736v6.928c0 1.767 1.433 3.2 3.2 3.2v0h8c0 0 0 0 0 0 1.767 0 3.2-1.433 3.2-3.2 0-0 0-0 0-0v0-0.584zM11.136 7.6h8c0.884 0 1.6 0.716 1.6 1.6v0 12.312h-11.2v-4.512l0.928 1.152c0.148 0.182 0.372 0.298 0.623 0.298 0.017 0 0.035-0.001 0.052-0.002l-0.002 0c0.066 0.008 0.134 0.008 0.2 0 0.304-0.083 0.533-0.333 0.583-0.643l0.001-0.005 0.296-1.808h1.472c0.884 0 1.6-0.716 1.6-1.6v0-4.744c-0-0.883-0.717-1.6-1.6-1.6h-3.68c0.287-0.277 0.679-0.448 1.111-0.448 0.006 0 0.012 0 0.018 0h-0.001zM3.2 9.648h10.44v4.72h-2.144c-0.003-0-0.007-0-0.010-0-0.397 0-0.726 0.289-0.789 0.667l-0.001 0.005-0.104 0.656-0.84-1.032c-0.037-0.043-0.079-0.080-0.126-0.111l-0.002-0.001c-0.040 0-0.072-0.056-0.12-0.080l-0.16-0.024c-0.024-0.004-0.052-0.006-0.080-0.006s-0.056 0.002-0.083 0.006l0.003-0h-5.984v-4.8zM19.136 24.496h-8c-0.004 0-0.009 0-0.015 0-0.807 0-1.475-0.598-1.584-1.376l-0.001-0.008h11.2c-0.11 0.786-0.778 1.384-1.585 1.384-0.005 0-0.010-0-0.015-0h0.001z"></path>
<path d="M9.248 12.048c0 0.442-0.358 0.8-0.8 0.8s-0.8-0.358-0.8-0.8v0c0-0.442 0.358-0.8 0.8-0.8s0.8 0.358 0.8 0.8v0zM11.648 12.048c0 0.442-0.358 0.8-0.8 0.8s-0.8-0.358-0.8-0.8v0c0-0.442 0.358-0.8 0.8-0.8s0.8 0.358 0.8 0.8v0zM6.848 12.048c0 0.442-0.358 0.8-0.8 0.8s-0.8-0.358-0.8-0.8v0c0-0.442 0.358-0.8 0.8-0.8s0.8 0.358 0.8 0.8v0z"></path>
</symbol>
<symbol id="icon-polygon" viewBox="0 0 32 32">
<path d="M16 22.857l-13.856-13.714h27.707l-13.851 13.714z"></path>
</symbol>
<symbol id="icon-client-1" viewBox="0 0 32 32">
<path d="M3.454 12.109c-0.22 0.186-0.359 0.462-0.359 0.77 0 0.083 0.010 0.164 0.029 0.241l-0.001-0.007c0.083 0.427 0.337 0.783 0.686 1l0.006 0.004c0.215-0.185 0.351-0.457 0.351-0.761 0-0.086-0.011-0.17-0.031-0.25l0.002 0.007c-0.079-0.426-0.33-0.782-0.676-1l-0.006-0.004zM2.4 14.598c0.11 0.433 0.386 0.788 0.755 1l0.008 0.004c0.177 0.127 0.399 0.203 0.638 0.203 0.177 0 0.345-0.042 0.493-0.116l-0.006 0.003c-0.113-0.432-0.389-0.786-0.755-1l-0.008-0.004c-0.179-0.125-0.4-0.199-0.64-0.199-0.176 0-0.343 0.040-0.491 0.113l0.007-0.003zM5.28 13.916c0.11 0.186 0.175 0.411 0.175 0.65 0 0.193-0.042 0.377-0.118 0.542l0.003-0.008c-0.141 0.313-0.45 0.526-0.808 0.526-0.030 0-0.059-0.001-0.089-0.004l0.004 0c-0.115-0.186-0.183-0.412-0.183-0.653 0-0.189 0.042-0.368 0.117-0.529l-0.003 0.008c0.141-0.318 0.454-0.536 0.818-0.536 0.030 0 0.060 0.001 0.089 0.004l-0.004-0zM3.665 17.188c0.18 0.464 0.54 0.824 0.992 1l0.012 0.004c0.148 0.075 0.323 0.119 0.507 0.119 0.259 0 0.498-0.086 0.69-0.231l-0.003 0.002c-0.174-0.467-0.537-0.83-0.992-1l-0.012-0.004c-0.148-0.078-0.324-0.124-0.51-0.124-0.259 0-0.497 0.088-0.686 0.236l0.002-0.002zM6.576 15.863c0.2 0.247 0.321 0.565 0.321 0.912 0 0.147-0.022 0.29-0.063 0.424l0.003-0.010c-0.103 0.401-0.437 0.701-0.848 0.753l-0.005 0c-0.18-0.244-0.288-0.55-0.288-0.882 0-0.158 0.025-0.31 0.070-0.454l-0.003 0.011c0.097-0.39 0.413-0.686 0.807-0.752l0.006-0.001zM5.070 19.949c0.263 0.446 0.705 0.762 1.224 0.852l0.011 0.002c0.081 0.021 0.174 0.034 0.271 0.034 0.379 0 0.713-0.191 0.912-0.482l0.002-0.004c-0.263-0.446-0.705-0.762-1.224-0.851l-0.011-0.002c-0.081-0.021-0.174-0.034-0.271-0.034-0.379 0-0.713 0.191-0.911 0.481l-0.002 0.004zM7.69 17.701c0.364 0.327 0.593 0.799 0.593 1.325 0 0.018-0 0.035-0.001 0.053l0-0.003c0.003 0.032 0.005 0.069 0.005 0.106 0 0.456-0.276 0.847-0.67 1.015l-0.007 0.003c-0.37-0.327-0.603-0.803-0.603-1.334 0-0.015 0-0.029 0.001-0.044l-0 0.002c-0.003-0.029-0.004-0.062-0.004-0.095 0-0.461 0.28-0.857 0.68-1.026l0.007-0.003zM6.997 21.947c0.303 0.408 0.776 0.674 1.312 0.693l0.003 0c0.026 0.002 0.057 0.003 0.088 0.003 0.441 0 0.823-0.257 1.003-0.629l0.003-0.007c-0.303-0.408-0.776-0.674-1.312-0.693l-0.003-0c-0.027-0.002-0.057-0.004-0.088-0.004-0.441 0-0.823 0.257-1.003 0.629l-0.003 0.007zM9.246 19.286c0.419 0.304 0.705 0.772 0.762 1.307l0.001 0.008c0.011 0.061 0.018 0.131 0.018 0.202 0 0.411-0.213 0.772-0.535 0.979l-0.005 0.003c-0.398-0.314-0.665-0.779-0.712-1.307l-0.001-0.007c-0.015-0.070-0.023-0.15-0.023-0.232 0-0.392 0.194-0.74 0.492-0.951l0.004-0.002zM9.638 23.974c0.262 0.205 0.597 0.329 0.96 0.329 0.196 0 0.384-0.036 0.556-0.102l-0.011 0.004c0.463-0.188 0.783-0.634 0.783-1.155 0-0.003 0-0.006-0-0.010v0c-0.258-0.209-0.59-0.336-0.952-0.336-0.2 0-0.39 0.039-0.565 0.109l0.010-0.004c-0.462 0.185-0.783 0.629-0.783 1.148 0 0.006 0 0.011 0 0.017v-0.001zM10.712 20.040c0.567 0.192 1.011 0.613 1.23 1.151l0.005 0.013c0.125 0.225 0.198 0.493 0.198 0.778s-0.073 0.553-0.202 0.786l0.004-0.008c-0.56-0.203-1-0.621-1.23-1.151l-0.005-0.014c-0.123-0.225-0.195-0.493-0.195-0.778s0.072-0.553 0.2-0.787l-0.004 0.009zM12.188 24.798c0.287 0.226 0.653 0.362 1.051 0.362 0.218 0 0.426-0.041 0.617-0.115l-0.012 0.004c0.505-0.207 0.853-0.695 0.853-1.264 0-0.004-0-0.008-0-0.011v0.001c-0.286-0.23-0.653-0.369-1.053-0.369-0.213 0-0.417 0.040-0.605 0.112l0.012-0.004c-0.51 0.209-0.863 0.701-0.863 1.276 0 0.003 0 0.006 0 0.009v-0zM13.372 20.481c0.617 0.217 1.103 0.676 1.35 1.26l0.006 0.015c0.14 0.246 0.223 0.54 0.223 0.853s-0.083 0.608-0.227 0.862l0.005-0.009c-0.621-0.209-1.113-0.661-1.37-1.24l-0.006-0.015c-0.135-0.244-0.214-0.536-0.214-0.845 0-0.324 0.087-0.628 0.238-0.89l-0.005 0.009zM28.149 12.109c0.22 0.186 0.359 0.462 0.359 0.77 0 0.083-0.010 0.164-0.029 0.241l0.001-0.007c-0.083 0.427-0.337 0.783-0.686 1l-0.006 0.004c-0.215-0.185-0.351-0.457-0.351-0.761 0-0.086 0.011-0.17 0.031-0.25l-0.002 0.007c0.079-0.426 0.33-0.782 0.676-1l0.006-0.004zM29.203 14.598c-0.11 0.433-0.386 0.788-0.755 1l-0.008 0.004c-0.177 0.127-0.399 0.203-0.638 0.203-0.177 0-0.344-0.042-0.493-0.116l0.006 0.003c0.113-0.432 0.388-0.785 0.755-1l0.008-0.004c0.179-0.125 0.401-0.199 0.64-0.199 0.176 0 0.343 0.040 0.491 0.112l-0.007-0.003zM26.322 13.916c-0.11 0.186-0.175 0.411-0.175 0.65 0 0.193 0.042 0.377 0.118 0.542l-0.003-0.008c0.141 0.313 0.449 0.526 0.808 0.526 0.030 0 0.060-0.002 0.089-0.004l-0.004 0c0.217-0.356 0.243-0.796 0.070-1.174-0.141-0.318-0.454-0.536-0.818-0.536-0.030 0-0.060 0.002-0.089 0.004l0.004-0zM27.938 17.188c-0.18 0.464-0.54 0.824-0.992 1l-0.012 0.004c-0.148 0.075-0.323 0.119-0.507 0.119-0.259 0-0.498-0.086-0.69-0.231l0.003 0.002c0.174-0.467 0.537-0.83 0.992-1l0.012-0.004c0.148-0.078 0.324-0.124 0.51-0.124 0.259 0 0.497 0.088 0.686 0.236l-0.002-0.002zM25.027 15.863c-0.2 0.247-0.321 0.565-0.321 0.912 0 0.147 0.022 0.289 0.063 0.423l-0.003-0.010c0.103 0.401 0.437 0.701 0.849 0.753l0.005 0c0.18-0.244 0.288-0.55 0.288-0.882 0-0.158-0.025-0.31-0.070-0.454l0.003 0.011c-0.097-0.39-0.413-0.686-0.807-0.752l-0.006-0.001zM26.532 19.949c-0.263 0.446-0.705 0.762-1.224 0.852l-0.011 0.002c-0.081 0.021-0.174 0.034-0.271 0.034-0.379 0-0.713-0.191-0.912-0.482l-0.002-0.004c0.263-0.446 0.705-0.762 1.224-0.851l0.011-0.002c0.081-0.021 0.174-0.034 0.27-0.034 0.379 0 0.713 0.191 0.911 0.481l0.002 0.004zM23.913 17.701c-0.364 0.327-0.593 0.799-0.593 1.325 0 0.018 0 0.035 0.001 0.053l-0-0.003c-0.003 0.032-0.005 0.069-0.005 0.106 0 0.456 0.276 0.847 0.67 1.015l0.007 0.003c0.37-0.327 0.603-0.803 0.603-1.334 0-0.015-0-0.029-0.001-0.044l0 0.002c0.003-0.029 0.004-0.062 0.004-0.095 0-0.461-0.28-0.857-0.68-1.026l-0.007-0.003zM24.606 21.947c-0.303 0.407-0.776 0.674-1.312 0.693l-0.003 0c-0.026 0.002-0.057 0.004-0.088 0.004-0.441 0-0.823-0.257-1.003-0.629l-0.003-0.007c0.303-0.408 0.776-0.674 1.312-0.693l0.003-0c0.026-0.002 0.057-0.003 0.088-0.003 0.441 0 0.823 0.257 1.003 0.629l0.003 0.007zM22.356 19.286c-0.419 0.304-0.704 0.772-0.762 1.307l-0.001 0.008c-0.011 0.061-0.018 0.131-0.018 0.202 0 0.411 0.213 0.772 0.535 0.979l0.005 0.003c0.418-0.306 0.702-0.772 0.762-1.306l0.001-0.009c0.011-0.061 0.018-0.131 0.018-0.202 0-0.411-0.213-0.773-0.535-0.98l-0.005-0.003zM21.965 23.974c-0.262 0.205-0.597 0.329-0.96 0.329-0.196 0-0.383-0.036-0.556-0.102l0.011 0.004c-0.463-0.188-0.783-0.634-0.783-1.156 0-0.003 0-0.006 0-0.009v0c0.258-0.209 0.59-0.336 0.952-0.336 0.2 0 0.39 0.039 0.565 0.109l-0.010-0.004c0.462 0.185 0.783 0.629 0.783 1.148 0 0.006-0 0.011-0 0.017v-0.001zM20.891 20.040c-0.567 0.192-1.012 0.613-1.23 1.151l-0.005 0.013c-0.125 0.225-0.198 0.493-0.198 0.778s0.073 0.553 0.202 0.786l-0.004-0.008c0.56-0.203 1-0.621 1.23-1.151l0.005-0.014c0.123-0.225 0.195-0.493 0.195-0.778s-0.072-0.553-0.2-0.787l0.004 0.009zM19.415 24.798c-0.287 0.226-0.653 0.362-1.051 0.362-0.218 0-0.426-0.041-0.617-0.115l0.012 0.004c-0.505-0.207-0.853-0.695-0.853-1.264 0-0.004 0-0.008 0-0.011v0.001c0.286-0.23 0.653-0.369 1.052-0.369 0.213 0 0.417 0.040 0.605 0.112l-0.012-0.004c0.51 0.209 0.864 0.701 0.864 1.276 0 0.003 0 0.006-0 0.009v-0zM18.231 20.481c-0.617 0.217-1.103 0.676-1.35 1.26l-0.006 0.015c-0.14 0.246-0.223 0.54-0.223 0.853s0.083 0.608 0.227 0.862l-0.005-0.009c0.621-0.209 1.112-0.661 1.369-1.24l0.006-0.015c0.135-0.244 0.214-0.536 0.214-0.845 0-0.324-0.087-0.628-0.238-0.89l0.005 0.009zM10.622 18.192c0.003 0 0.007 0 0.010 0 0.521 0 0.944-0.422 0.944-0.944 0-0.004-0-0.007-0-0.011v0.001-0.732c0.015-0.667 0.549-1.204 1.212-1.225l0.002-0h6.023c0.689 0 1.249 0.556 1.255 1.244v0.734c-0.003 0.029-0.005 0.063-0.005 0.097 0 0.527 0.427 0.954 0.953 0.954h0c0.527-0 0.954-0.427 0.954-0.954 0-0.034-0.002-0.068-0.005-0.101l0 0.004v-0.733c0-1.741-1.411-3.152-3.152-3.152h-6.024c-1.723 0.022-3.112 1.425-3.112 3.151 0 0 0 0 0 0.001v-0 0.733c0.006 0.517 0.426 0.934 0.944 0.934 0 0 0 0 0 0v0zM15.802 12.641c1.502-0.001 2.719-1.219 2.719-2.721 0-0.751-0.304-1.431-0.796-1.923l0 0c-0.492-0.492-1.172-0.797-1.924-0.797-1.502 0-2.72 1.218-2.72 2.72v0c0.006 1.5 1.22 2.714 2.719 2.721h0.001zM15.802 9.157c0.449 0 0.813 0.364 0.813 0.813s-0.364 0.813-0.813 0.813v0c-0.449 0-0.813-0.364-0.813-0.813s0.364-0.813 0.813-0.813v0z"></path>
</symbol>
<symbol id="icon-check-mark" viewBox="0 0 32 32">
<path fill="none" stroke="#e0ff00" style="stroke: var(--color1, #e0ff00)" stroke-linejoin="miter" stroke-linecap="butt" stroke-miterlimit="4" stroke-width="6" d="M4 17.5l9.5 9.5 14.5-24"></path>
</symbol>
<symbol id="icon-client-3" viewBox="0 0 32 32">
<path d="M25.916 14.592c0.189-0.211 0.305-0.492 0.305-0.799 0-0.051-0.003-0.101-0.009-0.151l0.001 0.006c-0.015-0.311-0.206-0.574-0.475-0.694l-0.005-0.002c-0.193 0.213-0.311 0.498-0.311 0.81 0 0.047 0.003 0.094 0.008 0.14l-0.001-0.006c0.017 0.313 0.211 0.577 0.483 0.694l0.005 0.002zM26.276 14.976c-0.222 0.234-0.358 0.552-0.358 0.9 0 0.043 0.002 0.086 0.006 0.129l-0-0.005c0.042 0.007 0.090 0.011 0.14 0.011 0.289 0 0.547-0.135 0.715-0.345l0.001-0.002c0.24-0.23 0.388-0.554 0.388-0.912 0-0.037-0.002-0.073-0.005-0.109l0 0.005c-0.057-0.013-0.123-0.021-0.191-0.021-0.284 0-0.537 0.136-0.696 0.347l-0.002 0.002zM25.781 15.92c0.021-0.078 0.033-0.168 0.033-0.26 0-0.258-0.094-0.495-0.25-0.677l0.001 0.001c-0.136-0.15-0.331-0.244-0.548-0.244-0.090 0-0.177 0.016-0.257 0.046l0.005-0.002c-0.018 0.073-0.029 0.158-0.029 0.244 0 0.266 0.099 0.508 0.262 0.693l-0.001-0.001c0.133 0.149 0.325 0.243 0.539 0.243 0.088 0 0.172-0.016 0.25-0.044l-0.005 0.002zM25.788 17.12c-0.301 0.24-0.498 0.599-0.52 1.005l-0 0.003c0.095 0.036 0.205 0.057 0.319 0.057 0.249 0 0.474-0.098 0.641-0.257l-0 0c0.297-0.239 0.491-0.595 0.512-0.997l0-0.003c-0.097-0.038-0.208-0.061-0.325-0.061-0.243 0-0.464 0.096-0.627 0.253l0-0zM25.116 18.056c0.054-0.131 0.086-0.283 0.086-0.442 0-0.234-0.068-0.451-0.184-0.635l0.003 0.005c-0.141-0.24-0.398-0.398-0.692-0.398-0.052 0-0.104 0.005-0.153 0.015l0.005-0.001c-0.052 0.13-0.083 0.281-0.083 0.44 0 0.234 0.067 0.453 0.182 0.638l-0.003-0.005c0.141 0.24 0.398 0.398 0.692 0.398 0.052 0 0.104-0.005 0.153-0.015l-0.005 0.001zM25.285 19.344c-0.394 0.185-0.687 0.53-0.798 0.95l-0.002 0.010c0.154 0.124 0.353 0.199 0.568 0.199 0.171 0 0.331-0.047 0.468-0.129l-0.004 0.002c0.377-0.191 0.655-0.532 0.758-0.942l0.002-0.010c-0.152-0.119-0.346-0.192-0.557-0.192-0.16 0-0.31 0.041-0.44 0.114l0.005-0.002zM24.38 20.176c0.223-0.362 0.276-0.804 0.144-1.208-0.095-0.371-0.411-0.646-0.797-0.68l-0.003-0c-0.227 0.36-0.28 0.804-0.144 1.208 0.094 0.372 0.411 0.648 0.797 0.68l0.003 0zM24.276 21.192c-0.398 0.145-0.707 0.452-0.853 0.838l-0.003 0.010c0.166 0.182 0.404 0.295 0.668 0.295 0.119 0 0.234-0.023 0.338-0.065l-0.006 0.002c0.399-0.14 0.709-0.445 0.853-0.83l0.003-0.010c-0.166-0.185-0.407-0.301-0.674-0.301-0.117 0-0.229 0.022-0.332 0.063l0.006-0.002zM22.621 21.080c0.052 0.381 0.319 0.689 0.673 0.798l0.007 0.002c0.197-0.249 0.316-0.568 0.316-0.914 0-0.101-0.010-0.2-0.030-0.296l0.002 0.009c-0.052-0.381-0.319-0.689-0.673-0.798l-0.007-0.002c-0.196 0.252-0.314 0.574-0.314 0.922 0 0.098 0.009 0.194 0.027 0.287l-0.002-0.009zM22.821 22.896c-0.027-0.002-0.058-0.003-0.090-0.003-0.423 0-0.798 0.208-1.027 0.527l-0.003 0.004c0.118 0.396 0.46 0.687 0.876 0.728l0.004 0c0.025 0.002 0.055 0.003 0.085 0.003 0.427 0 0.804-0.211 1.033-0.535l0.003-0.004c-0.12-0.393-0.462-0.681-0.876-0.72l-0.004-0zM21.26 22.008c-0.017 0.079-0.027 0.17-0.027 0.264 0 0.368 0.155 0.701 0.403 0.936l0.001 0.001c0.395-0.269 0.666-0.694 0.727-1.184l0.001-0.008c0.015-0.075 0.024-0.161 0.024-0.249 0-0.374-0.156-0.711-0.407-0.95l-0.001-0c-0.393 0.269-0.663 0.694-0.719 1.184l-0.001 0.008zM20.94 24.064c-0.031-0.003-0.068-0.004-0.104-0.004-0.462 0-0.871 0.231-1.117 0.584l-0.003 0.004c0.128 0.436 0.505 0.757 0.964 0.8l0.004 0c0.029 0.002 0.063 0.003 0.096 0.003 0.465 0 0.876-0.23 1.125-0.583l0.003-0.004c-0.122-0.44-0.503-0.764-0.964-0.8l-0.004-0zM20.397 23.096c0.016-0.080 0.024-0.171 0.024-0.265 0-0.416-0.175-0.79-0.456-1.055l-0.001-0.001c-0.415 0.305-0.696 0.771-0.751 1.304l-0.001 0.008c-0.017 0.084-0.027 0.179-0.027 0.278 0 0.409 0.17 0.779 0.442 1.042l0 0c0.422-0.301 0.71-0.768 0.767-1.304l0.001-0.008zM6.501 13.896c0.005-0.040 0.008-0.087 0.008-0.134 0-0.312-0.118-0.596-0.312-0.811l0.001 0.001c-0.274 0.121-0.465 0.385-0.48 0.694l-0 0.002c-0.006 0.043-0.009 0.094-0.009 0.145 0 0.307 0.116 0.588 0.306 0.8l-0.001-0.001c0.277-0.119 0.471-0.383 0.488-0.694l0-0.002zM6.004 16c0.002-0.026 0.003-0.056 0.003-0.087 0-0.347-0.135-0.663-0.356-0.898l0.001 0.001c-0.161-0.209-0.411-0.342-0.692-0.342-0.055 0-0.109 0.005-0.161 0.015l0.005-0.001c-0.003 0.031-0.004 0.068-0.004 0.104 0 0.338 0.133 0.645 0.349 0.872l-0-0.001c0.168 0.212 0.426 0.347 0.716 0.347 0.050 0 0.098-0.004 0.146-0.012l-0.005 0.001zM6.148 15.92c0.076 0.030 0.165 0.047 0.257 0.047 0.216 0 0.41-0.095 0.542-0.247l0.001-0.001c0.154-0.181 0.248-0.418 0.248-0.677 0-0.092-0.012-0.181-0.034-0.266l0.002 0.007c-0.075-0.028-0.162-0.045-0.252-0.045-0.217 0-0.412 0.094-0.547 0.244l-0.001 0.001c-0.155 0.181-0.249 0.417-0.249 0.676 0 0.093 0.012 0.182 0.035 0.268l-0.002-0.007zM6.661 18.128c-0.022-0.409-0.219-0.768-0.517-1.006l-0.003-0.002c-0.162-0.156-0.383-0.253-0.627-0.253-0.117 0-0.229 0.022-0.331 0.063l0.006-0.002c0.021 0.405 0.215 0.761 0.509 0.998l0.003 0.002c0.166 0.159 0.392 0.257 0.641 0.257 0.115 0 0.224-0.021 0.326-0.059l-0.006 0.002zM6.909 16.984c-0.114 0.179-0.182 0.396-0.182 0.63 0 0.159 0.031 0.311 0.088 0.45l-0.003-0.008c0.045 0.009 0.096 0.014 0.148 0.014 0.294 0 0.551-0.158 0.69-0.394l0.002-0.004c0.112-0.18 0.179-0.398 0.179-0.632 0-0.158-0.030-0.309-0.086-0.448l0.003 0.008c-0.045-0.009-0.096-0.014-0.149-0.014-0.294 0-0.55 0.158-0.689 0.394l-0.002 0.004zM7.413 20.304c-0.113-0.43-0.406-0.775-0.791-0.956l-0.009-0.004c-0.13-0.077-0.287-0.122-0.454-0.122-0.217 0-0.416 0.076-0.572 0.203l0.002-0.001c0.109 0.423 0.392 0.764 0.767 0.948l0.009 0.004c0.135 0.083 0.298 0.132 0.473 0.132 0.219 0 0.42-0.077 0.577-0.205l-0.002 0.001zM7.404 18.968c-0.045 0.134-0.071 0.288-0.071 0.448 0 0.281 0.080 0.544 0.219 0.766l-0.004-0.006c0.389-0.032 0.706-0.308 0.799-0.674l0.001-0.006c0.047-0.135 0.074-0.291 0.074-0.453 0-0.28-0.081-0.541-0.222-0.761l0.003 0.006c-0.389 0.034-0.704 0.309-0.799 0.674l-0.001 0.006zM7.653 21.192c-0.097-0.039-0.209-0.061-0.326-0.061-0.267 0-0.507 0.116-0.673 0.3l-0.001 0.001c0.147 0.395 0.457 0.7 0.846 0.837l0.010 0.003c0.098 0.040 0.212 0.063 0.332 0.063 0.264 0 0.502-0.113 0.668-0.294l0.001-0.001c-0.149-0.396-0.458-0.703-0.846-0.845l-0.010-0.003zM8.628 21.888c0.361-0.112 0.628-0.419 0.679-0.795l0.001-0.005c0.016-0.084 0.026-0.18 0.026-0.278 0-0.349-0.118-0.669-0.316-0.925l0.003 0.003c-0.361 0.111-0.628 0.419-0.679 0.795l-0.001 0.005c-0.018 0.086-0.028 0.185-0.028 0.286 0 0.346 0.119 0.665 0.318 0.917l-0.002-0.003zM9.108 22.896c-0.418 0.039-0.76 0.327-0.878 0.713l-0.002 0.007c0.232 0.328 0.609 0.539 1.036 0.539 0.030 0 0.059-0.001 0.088-0.003l-0.004 0c0.42-0.041 0.763-0.332 0.878-0.721l0.002-0.007c-0.232-0.323-0.607-0.531-1.030-0.531-0.032 0-0.063 0.001-0.094 0.003l0.004-0zM10.293 23.2c0.249-0.235 0.403-0.568 0.403-0.936 0-0.093-0.010-0.185-0.029-0.272l0.002 0.008c-0.045-0.495-0.301-0.922-0.675-1.197l-0.005-0.003c-0.252 0.239-0.408 0.577-0.408 0.951 0 0.088 0.009 0.174 0.025 0.258l-0.001-0.008c0.049 0.495 0.307 0.922 0.683 1.197l0.005 0.003zM10.988 24.064c-0.465 0.037-0.845 0.36-0.966 0.792l-0.002 0.008c0.252 0.357 0.663 0.587 1.128 0.587 0.034 0 0.068-0.001 0.101-0.004l-0.004 0c0.462-0.043 0.84-0.364 0.966-0.792l0.002-0.008c-0.249-0.357-0.657-0.588-1.12-0.588-0.037 0-0.073 0.001-0.109 0.004l0.005-0zM11.965 21.776c-0.273 0.264-0.443 0.633-0.443 1.042 0 0.098 0.010 0.194 0.028 0.287l-0.002-0.009c0.054 0.542 0.336 1.008 0.747 1.308l0.005 0.004c0.273-0.264 0.443-0.633 0.443-1.042 0-0.098-0.010-0.194-0.028-0.287l0.002 0.009c-0.056-0.541-0.337-1.007-0.747-1.308l-0.005-0.004zM23.164 13.6c0-3.976-3.224-7.2-7.2-7.2s-7.2 3.224-7.2 7.2v0c0 3.976 3.224 7.2 7.2 7.2s7.2-3.224 7.2-7.2v0zM15.964 19.2c-3.093-0-5.6-2.507-5.6-5.6s2.507-5.6 5.6-5.6c0 0 0 0 0 0v0c3.093 0 5.6 2.507 5.6 5.6s-2.507 5.6-5.6 5.6v0z"></path>
<path d="M20.181 12.576c-0.095-0.285-0.338-0.496-0.635-0.543l-0.005-0.001-1.976-0.288-0.88-1.784c-0.133-0.269-0.405-0.45-0.72-0.45s-0.587 0.182-0.718 0.446l-0.002 0.005-0.88 1.784-1.976 0.256c-0.302 0.048-0.545 0.259-0.638 0.538l-0.002 0.006c-0.022 0.070-0.035 0.15-0.035 0.233 0 0.221 0.090 0.422 0.235 0.566v0l1.424 1.392-0.336 1.96c-0.009 0.045-0.014 0.097-0.014 0.15 0 0.267 0.131 0.503 0.332 0.648l0.002 0.002c0.127 0.089 0.285 0.142 0.455 0.142 0.125 0 0.244-0.029 0.35-0.080l-0.005 0.002 1.808-0.888 1.768 0.928c0.114 0.058 0.24 0.088 0.368 0.088 0.17 0 0.335-0.053 0.472-0.152 0.203-0.147 0.334-0.383 0.334-0.65 0-0.053-0.005-0.105-0.015-0.155l0.001 0.005-0.336-1.96 1.408-1.376c0.156-0.146 0.253-0.354 0.253-0.583 0-0.086-0.014-0.169-0.039-0.246l0.002 0.006zM17.133 13.936c-0.146 0.145-0.237 0.346-0.237 0.568 0 0.051 0.005 0.1 0.014 0.149l-0.001-0.005 0.128 0.8-0.696-0.368c-0.11-0.055-0.239-0.088-0.376-0.088s-0.266 0.032-0.381 0.090l0.005-0.002-0.696 0.368 0.128-0.8c0.008-0.043 0.013-0.093 0.013-0.144 0-0.222-0.091-0.423-0.237-0.568l-0-0-0.568-0.552 0.8-0.112c0.265-0.041 0.484-0.207 0.598-0.435l0.002-0.005 0.352-0.712 0.352 0.712c0.116 0.233 0.335 0.399 0.596 0.439l0.004 0.001 0.8 0.112-0.6 0.552z"></path>
</symbol>
<symbol id="icon-client-4" viewBox="0 0 32 32">
<path d="M25.792 16.16h-1.832v-5.6c0.006-0.072 0.006-0.144 0-0.216 0.004-0.024 0.004-0.048 0-0.072-0.16-1.184-1.164-2.088-2.38-2.088-0.007 0-0.014 0-0.021 0h-3.423c0-0.004 0-0.008 0-0.012 0-1.862-1.51-3.372-3.372-3.372-1.858 0-3.365 1.503-3.372 3.359v0.001h-3.392c-0.003 0-0.006-0-0.009-0-1.252 0-2.281 0.959-2.39 2.183l-0.001 0.009v9.808c0 1.325 1.075 2.4 2.4 2.4h9.792v4c0 0.442 0.358 0.8 0.8 0.8v0h7.2c0.442 0 0.8-0.358 0.8-0.8v0-9.6c0-0.442-0.358-0.8-0.8-0.8v0zM14.784 6.64c0.889 0.006 1.624 0.658 1.759 1.51l0.001 0.010h-3.552c0.136-0.866 0.877-1.52 1.77-1.52 0.008 0 0.015 0 0.023 0h-0.001zM8 9.76h13.552c0.001 0 0.003 0 0.005 0 0.413 0 0.754 0.314 0.795 0.717l0 0.003v0.080c-0.029 0.861-0.432 1.623-1.051 2.132l-0.005 0.004c-0.716 0.597-1.647 0.96-2.662 0.96-0.015 0-0.030-0-0.045-0l0.002 0h-3.008v-0.696c0-0.442-0.358-0.8-0.8-0.8s-0.8 0.358-0.8 0.8v0 0.696h-3.016c-2.064 0-3.744-1.392-3.76-3.064v-0.128c0.049-0.398 0.385-0.703 0.792-0.704h0zM8 20.96c-0.442 0-0.8-0.358-0.8-0.8v0-6.272c0.995 0.851 2.296 1.368 3.718 1.368 0.018 0 0.035-0 0.052-0l-0.003 0h3.016v0.104c0 0.442 0.358 0.8 0.8 0.8s0.8-0.358 0.8-0.8v0-0.104h3.008c0.020 0 0.043 0 0.067 0 1.404 0 2.69-0.505 3.686-1.344l-0.009 0.007v2.24h-3.744c-0.442 0-0.8 0.358-0.8 0.8v0 4h-9.792zM24.992 25.76h-5.6v-8h5.6v8z"></path>
<path d="M20.992 20.96h2.4c0.442 0 0.8-0.358 0.8-0.8s-0.358-0.8-0.8-0.8v0h-2.4c-0.442 0-0.8 0.358-0.8 0.8s0.358 0.8 0.8 0.8v0zM20.992 24.16h2.4c0.442 0 0.8-0.358 0.8-0.8s-0.358-0.8-0.8-0.8v0h-2.4c-0.442 0-0.8 0.358-0.8 0.8s0.358 0.8 0.8 0.8v0z"></path>
</symbol>
<symbol id="icon-client-5" viewBox="0 0 32 32">
<path d="M21.033 20.405h-7.64l-1.224-0.176c-1.72-0.266-3.065-1.598-3.349-3.289l-0.003-0.023-1.44-8.8c-0.139-0.754-0.791-1.317-1.575-1.317-0.091 0-0.18 0.008-0.267 0.022l0.009-0.001c-1.138 0.107-2.174 0.299-3.177 0.574l0.129-0.030c-0.294 0.123-0.497 0.408-0.497 0.74 0 0.099 0.018 0.194 0.051 0.281l-0.002-0.006c0.115 0.309 0.408 0.525 0.751 0.525 0.095 0 0.186-0.017 0.27-0.047l-0.006 0.002c0.16-0.048 0.96-0.2 2.728-0.448l1.448 8.8c0.407 2.396 2.29 4.254 4.665 4.62l0.031 0.004 1.28 0.192h7.816c0.442 0 0.8-0.358 0.8-0.8s-0.358-0.8-0.8-0.8v0l-0-0.024zM13.337 22.421c-0.009-0-0.019-0-0.030-0-0.751 0-1.36 0.609-1.36 1.36s0.609 1.36 1.36 1.36c0.005 0 0.010-0 0.014-0h-0.001c0.002 0 0.005 0 0.008 0 0.751 0 1.36-0.609 1.36-1.36 0-0.748-0.604-1.355-1.351-1.36h-0zM19.049 22.421c-0.751 0-1.36 0.609-1.36 1.36s0.609 1.36 1.36 1.36c0.751 0 1.36-0.609 1.36-1.36 0-0.003 0-0.006-0-0.008v0c-0-0.747-0.606-1.352-1.353-1.352-0.003 0-0.005 0-0.008 0h0z"></path>
<path d="M21.793 10.037h-11.2c-0.442 0-0.8 0.358-0.8 0.8v0 4.8c0 0 0 0 0 0 0 2.209 1.791 4 4 4 0 0 0 0 0 0h4.8c2.209 0 4-1.791 4-4v0-4.8c-0-0.442-0.358-0.8-0.8-0.8h-0zM20.993 15.637c-0 1.325-1.075 2.4-2.4 2.4h-4.8c-1.325 0-2.4-1.075-2.4-2.4v0-4h9.6v4z"></path>
<path d="M16.329 17.165c0.442 0 0.8-0.358 0.8-0.8v0l-0.040-3.2c0-0.442-0.358-0.8-0.8-0.8s-0.8 0.358-0.8 0.8v0l0.040 3.2c0 0.442 0.358 0.8 0.8 0.8v0zM13.929 17.165c0.442 0 0.8-0.358 0.8-0.8v0l-0.040-3.2c0-0.442-0.358-0.8-0.8-0.8s-0.8 0.358-0.8 0.8v0l0.040 3.2c0 0.442 0.358 0.8 0.8 0.8v0zM18.729 17.165c0.442 0 0.8-0.358 0.8-0.8v0l-0.040-3.2c0-0.442-0.358-0.8-0.8-0.8s-0.8 0.358-0.8 0.8v0l0.040 3.2c0 0.442 0.358 0.8 0.8 0.8v0z"></path>
</symbol>
<symbol id="icon-client-6" viewBox="0 0 32 32">
<path d="M12.456 21.568h-5.008c-1.461 0.004-2.644 1.187-2.648 2.648v0.608c0 0.442 0.358 0.8 0.8 0.8s0.8-0.358 0.8-0.8v-0.624c0-0 0-0 0-0 0-0.579 0.469-1.048 1.048-1.048 0 0 0 0 0 0h5.008c0 0 0 0 0 0 0.579 0 1.048 0.469 1.048 1.048 0 0.006-0 0.011-0 0.017v-0.001 0.608c0 0.442 0.358 0.8 0.8 0.8s0.8-0.358 0.8-0.8v0-0.624c-0.014-1.454-1.193-2.628-2.648-2.632h-0zM9.952 21.208c0.003 0 0.006 0 0.010 0 1.263 0 2.287-1.024 2.287-2.287 0-0.632-0.256-1.204-0.671-1.618l-0-0c-0.414-0.414-0.986-0.67-1.618-0.67-1.264 0-2.288 1.024-2.288 2.288 0 1.261 1.020 2.284 2.28 2.288h0zM9.952 18.24c0.022-0.003 0.048-0.004 0.074-0.004 0.38 0 0.688 0.308 0.688 0.688 0 0.354-0.267 0.645-0.61 0.683l-0.003 0c-0.022 0.003-0.048 0.004-0.074 0.004-0.38 0-0.688-0.308-0.688-0.688 0-0.354 0.267-0.645 0.61-0.683l0.003-0zM24.36 21.568h-5.008c-1.461 0.005-2.643 1.187-2.648 2.648v0.608c0 0.442 0.358 0.8 0.8 0.8s0.8-0.358 0.8-0.8v0-0.624c0-0 0-0 0-0 0-0.579 0.469-1.048 1.048-1.048 0 0 0 0 0 0h5.008c0 0 0.001 0 0.001 0 0.578 0 1.047 0.469 1.047 1.047 0 0 0 0.001 0 0.001v-0 0.624c0 0.442 0.358 0.8 0.8 0.8s0.8-0.358 0.8-0.8v0-0.624c-0.013-1.454-1.193-2.628-2.648-2.632h-0zM19.568 18.928c0 0.001 0 0.001 0 0.002 0 1.263 1.024 2.287 2.287 2.287 0.632 0 1.205-0.257 1.619-0.671l0-0c0.415-0.414 0.671-0.986 0.671-1.618 0-1.263-1.024-2.287-2.287-2.287-0.001 0-0.001 0-0.002 0h0c-1.263 0-2.288 1.025-2.288 2.288v0zM21.856 18.24c0.38 0.001 0.687 0.309 0.687 0.689 0 0.189-0.076 0.361-0.2 0.486l0-0c-0.125 0.124-0.296 0.201-0.486 0.201-0.38 0-0.688-0.307-0.689-0.687v-0c-0-0.002-0-0.005-0-0.008 0-0.376 0.304-0.68 0.68-0.68 0.003 0 0.006 0 0.008 0h-0zM11.552 15.408c0.442-0 0.8-0.358 0.8-0.8v-0.616c0-0.579 0.469-1.048 1.048-1.048v0h5.008c0 0 0 0 0 0 0.579 0 1.048 0.469 1.048 1.048 0 0 0 0 0 0v-0 0.616c0 0.442 0.358 0.8 0.8 0.8s0.8-0.358 0.8-0.8v0-0.616c0-1.462-1.186-2.648-2.648-2.648v0h-5.008c-1.462 0-2.648 1.186-2.648 2.648v0 0.616c0 0.442 0.358 0.8 0.8 0.8v0zM15.904 10.976c0.002 0 0.005 0 0.007 0 1.263 0 2.287-1.023 2.289-2.285v-0c0-0 0-0.001 0-0.001 0-1.264-1.025-2.29-2.29-2.29-0 0-0 0-0 0h0c-1.263 0.001-2.286 1.024-2.286 2.287 0 0.632 0.256 1.204 0.671 1.618l0 0c0.412 0.412 0.981 0.668 1.61 0.67h0zM15.904 8.024c0.377 0.005 0.68 0.311 0.68 0.688 0 0 0 0 0 0v0c-0.013 0.366-0.312 0.657-0.68 0.657s-0.667-0.291-0.68-0.656l-0-0.001c0 0 0-0 0-0 0-0.377 0.303-0.683 0.68-0.688h0z"></path>
</symbol>
<symbol id="icon-client-7" viewBox="0 0 32 32">
<path d="M26.080 13.763c-0.005-1.346-1.094-2.435-2.44-2.44h-3.72c-0.876-1.954-2.801-3.291-5.039-3.296h-2.481c-0.442 0-0.8 0.358-0.8 0.8v0 9.456c0 0.442 0.358 0.8 0.8 0.8v0h2.48c2.085-0.001 3.9-1.155 4.842-2.86l0.014-0.028h0.664v5.856c0 1.105 0.895 2 2 2s2-0.895 2-2v0-5.984c0.375-0.124 0.696-0.322 0.961-0.577l-0.001 0.001c0.445-0.436 0.72-1.043 0.72-1.714 0-0.005 0-0.010-0-0.015v0.001zM14.88 17.483h-1.68v-7.856h1.68c0.053-0.003 0.115-0.004 0.178-0.004 2.164 0 3.919 1.755 3.919 3.919 0 0 0 0.001 0 0.001v-0c0 2.165-1.755 3.92-3.92 3.92-0.062 0-0.124-0.001-0.185-0.004l0.009 0v0.024zM22.44 22.427c-0.221 0-0.4-0.179-0.4-0.4v0-5.831h0.8v5.856c-0.013 0.21-0.187 0.376-0.399 0.376-0 0-0 0-0.001 0h0zM24.232 14.347c-0.167 0.166-0.396 0.256-0.632 0.248h-3.296c0.061-0.338 0.093-0.68 0.096-1.024-0.001-0.23-0.016-0.455-0.043-0.676l0.003 0.028h3.28c0.012-0.001 0.027-0.001 0.041-0.001 0.442 0 0.8 0.358 0.8 0.8 0 0.014-0 0.029-0.001 0.043l0-0.002c0 0.002 0 0.003 0 0.005 0 0.228-0.095 0.433-0.248 0.578l-0 0zM8.28 16.235l-1.696 1.696c-0.146 0.145-0.236 0.346-0.236 0.568s0.090 0.423 0.236 0.568l0 0c0.145 0.146 0.346 0.236 0.568 0.236s0.423-0.090 0.568-0.236l1.696-1.696c0.145-0.145 0.235-0.346 0.235-0.568 0-0.444-0.36-0.803-0.803-0.803-0.222 0-0.423 0.090-0.568 0.235v0zM8.28 11.067c0.145 0.146 0.346 0.237 0.568 0.237s0.423-0.090 0.568-0.237l0-0c0.146-0.145 0.237-0.346 0.237-0.568s-0.090-0.423-0.237-0.568l-1.696-1.696c-0.145-0.145-0.346-0.235-0.568-0.235-0.444 0-0.803 0.36-0.803 0.803 0 0.222 0.090 0.423 0.235 0.568l1.696 1.696zM9.2 12.827h-2.4c-0.442 0-0.8 0.358-0.8 0.8s0.358 0.8 0.8 0.8v0h2.4c0.442 0 0.8-0.358 0.8-0.8s-0.358-0.8-0.8-0.8v0z"></path>
</symbol>
<symbol id="icon-burger" viewBox="0 0 32 32">
<path d="M1.28 5.76h29.44c0.707 0 1.28 0.573 1.28 1.28s-0.573 1.28-1.28 1.28h-29.44c-0.707 0-1.28-0.573-1.28-1.28s0.573-1.28 1.28-1.28z"></path>
<path d="M1.28 14.72h29.44c0.707 0 1.28 0.573 1.28 1.28s-0.573 1.28-1.28 1.28h-29.44c-0.707 0-1.28-0.573-1.28-1.28s0.573-1.28 1.28-1.28z"></path>
<path d="M1.28 23.68h29.44c0.707 0 1.28 0.573 1.28 1.28s-0.573 1.28-1.28 1.28h-29.44c-0.707 0-1.28-0.573-1.28-1.28s0.573-1.28 1.28-1.28z"></path>
</symbol><symbol id="icon-close" viewBox="0 0 32 32">
<path fill="none" stroke-linejoin="round" stroke-linecap="round" stroke-miterlimit="4" stroke-width="2" d="M25.333 6.667l-18.667 18.667M6.667 6.667l18.667 18.667"></path>
</defs>
</svg>
